# xmcd
#
# Track frame offsets:
#	182
#	8042
#	18667
#	30197
#	42737
#	55405
#	67585
#	80510
#	94330
#	107425
#	120382
#	138990
#	148430
#
# Disc length: 2144 seconds
#
# Revision: 1
# Processed by: cddbd v1.5.1PL0 Copyright (c) Steve Scherf et al.
# Submitted via: audiograbber 1.83.01
#
DISCID=a9085e0d
DTITLE=The Original River Road Boys - A souvenir from Texas
DYEAR=1900
DGENRE=Country
TTITLE0=Introduction, Larry Scott
TTITLE1=Let it roll (Let it rock)
TTITLE2=Sugar moon
TTITLE3=Sorry
TTITLE4=Bandera Waltz
TTITLE5=Boot Hill drag
TTITLE6=I'll sail my ship alone
TTITLE7=Flying home
TTITLE8=Texas and you
TTITLE9=Birdie dance
TTITLE10=Truck drivers blues
TTITLE11=Whose heart are you breaking now
TTITLE12=I'll fly away
EXTD=
EXTT0=
EXTT1=
EXTT2=
EXTT3=
EXTT4=
EXTT5=
EXTT6=
EXTT7=
EXTT8=
EXTT9=
EXTT10=
EXTT11=
EXTT12=
PLAYORDER=
